<svg width="40" height="40" viewBox="0 0 40 40" fill="none" xmlns="http://www.w3.org/2000/svg">
<path d="M20 39.375C30.7031 39.375 39.375 30.7031 39.375 20C39.375 9.29688 30.7031 0.625 20 0.625C9.29688 0.625 0.625 9.29688 0.625 20C0.625 30.7031 9.29688 39.375 20 39.375ZM28.8984 21.3281L18.3125 31.9141C17.5781 32.6484 16.3906 32.6484 15.6641 31.9141L14.3359 30.5859C13.6016 29.8516 13.6016 28.6641 14.3359 27.9375L22.2734 20L14.3359 12.0625C13.6016 11.3281 13.6016 10.1406 14.3359 9.41406L15.6641 8.08594C16.3984 7.35156 17.5859 7.35156 18.3125 8.08594L28.8984 18.6719C29.6328 19.4062 29.6328 20.5938 28.8984 21.3281Z" fill="#5B5B5B"/>
</svg>
