<?xml version="1.0" standalone="no"?>
<!DOCTYPE svg PUBLIC "-//W3C//DTD SVG 20010904//EN"
 "http://www.w3.org/TR/2001/REC-SVG-20010904/DTD/svg10.dtd">
<svg version="1.0" xmlns="http://www.w3.org/2000/svg"
 width="1280.000000pt" height="1259.000000pt" viewBox="0 0 1280.000000 1259.000000"
 preserveAspectRatio="xMidYMid meet">
<metadata>
Created by potrace 1.15, written by Peter Selinger 2001-2017
</metadata>
<g transform="translate(0.000000,1259.000000) scale(0.100000,-0.100000)"
fill="#000000" stroke="none">
<path d="M6105 12584 c-170 -10 -363 -27 -475 -40 -1980 -235 -3730 -1364
-4749 -3062 -486 -808 -774 -1709 -862 -2692 -18 -191 -18 -799 0 -990 33
-367 91 -711 177 -1048 403 -1586 1443 -2974 2869 -3829 788 -473 1655 -769
2565 -877 272 -32 425 -40 770 -40 345 0 498 8 770 40 1979 235 3730 1364
4749 3062 486 808 774 1709 862 2692 18 191 18 799 0 990 -33 367 -91 711
-177 1048 -403 1586 -1443 2974 -2869 3829 -851 511 -1763 806 -2775 899 -155
14 -723 26 -855 18z m495 -1254 c831 -39 1560 -254 2270 -671 187 -109 499
-323 500 -342 0 -12 -1030 -1091 -1035 -1085 -1 2 1 35 6 73 16 142 21 400 10
509 -26 257 -90 390 -219 453 -226 111 -606 -92 -1266 -676 -113 -100 -119
-104 -133 -86 -18 26 -81 142 -238 445 -264 508 -420 743 -584 883 -108 92
-213 118 -309 77 -199 -86 -320 -454 -397 -1204 -20 -200 -21 -200 -179 -243
-50 -13 -105 -33 -123 -43 -27 -16 -38 -17 -65 -8 -75 26 -172 97 -474 349
-423 353 -559 440 -691 443 -72 1 -105 -17 -140 -80 -74 -131 -8 -478 200
-1049 38 -104 85 -238 105 -297 l36 -106 -56 -61 c-31 -33 -69 -88 -85 -121
l-28 -61 -80 5 c-44 3 -192 25 -330 50 -380 67 -483 79 -653 74 -97 -3 -157
-10 -177 -19 -86 -41 -115 -79 -115 -156 0 -155 213 -391 705 -784 136 -109
175 -145 197 -185 34 -63 43 -118 29 -172 -20 -72 -61 -108 -210 -180 -366
-176 -586 -315 -732 -461 -130 -131 -164 -198 -164 -326 0 -104 16 -147 87
-231 88 -104 202 -182 488 -334 202 -108 301 -170 324 -205 40 -61 -17 -155
-314 -515 -255 -308 -320 -452 -260 -570 70 -137 351 -160 874 -70 64 11 128
23 143 26 24 7 25 5 19 -22 -4 -15 -38 -91 -76 -168 l-70 -141 -419 -440
c-231 -242 -424 -441 -429 -443 -11 -3 -99 113 -218 290 -672 1000 -965 2212
-828 3428 133 1189 690 2304 1557 3119 886 832 2000 1295 3207 1334 47 2 96 4
110 5 14 1 117 -3 230 -8z m3723 -1975 c192 -257 325 -473 476 -775 443 -886
618 -1881 505 -2871 -135 -1192 -690 -2304 -1557 -3118 -1224 -1149 -2906
-1592 -4522 -1192 -663 164 -1308 481 -1840 904 l-85 68 298 312 c165 172 322
338 351 369 46 50 61 60 134 84 64 21 342 129 415 161 8 4 12 -8 12 -40 0 -55
-3 -69 -90 -452 -90 -390 -112 -518 -113 -640 -1 -82 3 -109 20 -147 54 -119
172 -108 346 32 127 101 437 435 592 637 22 29 43 52 47 53 4 0 46 -78 94
-172 128 -255 172 -312 262 -339 126 -37 250 89 379 385 25 58 47 105 48 104
2 -2 26 -57 54 -123 145 -338 268 -475 426 -475 222 0 443 313 696 983 36 98
70 178 75 178 19 -1 121 -74 453 -324 189 -142 405 -299 480 -348 389 -256
610 -296 705 -129 30 54 31 58 30 180 0 106 -6 145 -33 254 -37 147 -83 287
-165 500 -32 81 -65 180 -73 220 -30 137 -18 398 21 451 25 34 109 32 636 -16
173 -15 441 -13 532 5 206 40 296 154 253 320 -33 125 -128 272 -305 471 -81
92 -137 148 -394 395 -110 106 -119 124 -114 209 6 85 35 147 110 226 65 70
143 116 238 140 391 98 730 342 823 593 16 42 21 80 21 142 0 75 -3 93 -31
150 -114 235 -483 397 -1083 475 -153 20 -192 39 -236 112 -43 72 -58 151 -52
275 6 137 20 162 150 274 213 184 371 362 438 494 44 86 53 186 22 247 -39 76
-121 129 -247 159 -38 9 -77 20 -87 23 -12 5 72 98 354 393 l370 388 35 -43
c20 -23 77 -96 126 -162z"/>
</g>
</svg>
