<svg xmlns="http://www.w3.org/2000/svg" viewBox="0 0 118.86 118.86"><defs><style>.cls-1,.cls-5,.cls-6{fill:none;}.cls-1,.cls-2,.cls-3,.cls-4,.cls-5{stroke:#000;}.cls-1,.cls-2,.cls-3,.cls-4,.cls-5,.cls-6{stroke-miterlimit:10;}.cls-1,.cls-2{stroke-width:8px;}.cls-3,.cls-5,.cls-6{stroke-width:9px;}.cls-4{stroke-width:6px;}.cls-6{stroke:#fff;}</style></defs><title>Asset 2</title><g id="Layer_2" data-name="Layer 2"><g id="Layer_1-2" data-name="Layer 1"><circle class="cls-1" cx="62.68" cy="56.18" r="28"/><ellipse cx="62.68" cy="47.68" rx="8" ry="7.5"/><circle cx="78.68" cy="56.18" r="4"/><circle cx="50.68" cy="64.18" r="4"/><circle cx="93.77" cy="26.16" r="8.5"/><ellipse cx="103.72" cy="70.27" rx="8.5" ry="8" transform="translate(-3 4.64) rotate(-2.53)"/><circle cx="26.83" cy="85.67" r="8"/><circle cx="21.6" cy="57.88" r="8"/><circle cx="33.13" cy="24.34" r="8"/><ellipse cx="60.77" cy="15.61" rx="8" ry="7.5" transform="translate(-0.63 2.7) rotate(-2.53)"/><ellipse cx="56" cy="88.89" rx="8" ry="7.5" transform="translate(-3.87 2.56) rotate(-2.53)"/><ellipse cx="80.33" cy="95.83" rx="8" ry="7.5" transform="translate(-4.15 3.64) rotate(-2.53)"/><ellipse cx="92.35" cy="50.75" rx="6" ry="8" transform="translate(-2.15 4.12) rotate(-2.53)"/><line class="cls-2" x1="26.83" y1="85.67" x2="40.24" y2="72.07"/><line class="cls-3" x1="21.08" y1="57.4" x2="35.06" y2="56.78"/><line class="cls-3" x1="61.27" y1="15.59" x2="61.8" y2="27.58"/><line class="cls-3" x1="93.77" y1="26.16" x2="83.27" y2="37.64"/><line class="cls-3" x1="103.75" y1="70.77" x2="89.5" y2="65.39"/><line class="cls-4" x1="81.31" y1="95.28" x2="71.22" y2="82.21"/><line class="cls-5" x1="9.68" y1="3.18" x2="115.68" y2="109.18"/><line class="cls-6" x1="3.18" y1="8.68" x2="110.18" y2="115.68"/></g></g></svg>