<svg width="65" height="65" viewBox="0 0 65 65" fill="none" xmlns="http://www.w3.org/2000/svg">
<path d="M20.5664 28.5645C22.8939 29.8763 26.1947 31.495 30.4688 33.4204C34.7428 35.3459 38.689 37.2078 42.3071 39.0063C45.9253 40.8049 48.8981 42.5505 51.2256 44.2432C57.9541 49.1943 62.5456 53.4049 65 56.875L56.875 65C54.1667 59.5833 51.2467 55.013 48.1152 51.2891C40.2441 57.7637 31.9076 58.5677 23.1055 53.7012C19.847 51.9238 16.9906 49.9878 14.5361 47.8931C12.0817 45.7983 10.0399 43.8094 8.41064 41.9263C6.78141 40.0431 5.41667 37.6733 4.31641 34.8169C3.21615 31.9604 2.38037 29.5378 1.80908 27.5488C1.23779 25.5599 0.814616 22.714 0.539551 19.0112C0.264486 15.3084 0.105794 12.3568 0.0634766 10.1562C0.0211588 7.95573 0 4.57031 0 0C1.94661 2.1582 4.25293 3.87207 6.91895 5.1416C9.58496 6.41113 12.2933 7.26807 15.0439 7.7124C17.7946 8.15674 20.6616 8.49528 23.645 8.72803C26.6284 8.96077 29.5695 9.29932 32.4683 9.74365C35.367 10.188 38.1494 10.8651 40.8154 11.7749C43.4814 12.6847 46.0205 14.2188 48.4326 16.377C50.8447 18.5352 52.9183 21.2646 54.6533 24.5654C56.1344 27.4854 56.875 30.8073 56.875 34.5312C56.875 36.9434 56.473 39.2285 55.6689 41.3867C52.2835 39.3555 47.8296 36.9857 42.3071 34.2773C36.7847 31.569 31.6854 29.0299 27.0093 26.6602C22.3332 24.2904 18.7467 22.1745 16.25 20.3125C13.9648 18.6198 11.6797 16.2712 9.39453 13.2666C8.75977 12.4626 8.37891 12.2087 8.25195 12.5049C8.16732 12.8011 8.125 14.0495 8.125 16.25C8.125 17.5618 9.2041 19.2334 11.3623 21.2646C13.5205 23.2959 16.5885 25.7292 20.5664 28.5645Z" fill="black"/>
</svg>
