<svg width="34" height="34" viewBox="0 0 34 34" fill="none" xmlns="http://www.w3.org/2000/svg">
<path d="M30.2222 26.4444H3.77778C1.69433 26.4444 0 28.1388 0 30.2222C0 32.3057 1.69433 34 3.77778 34H30.2222C32.3057 34 34 32.3057 34 30.2222C34 28.1388 32.3057 26.4444 30.2222 26.4444ZM30.2222 13.2222H3.77778C1.69433 13.2222 0 14.9166 0 17C0 19.0834 1.69433 20.7778 3.77778 20.7778H30.2222C32.3057 20.7778 34 19.0834 34 17C34 14.9166 32.3057 13.2222 30.2222 13.2222ZM30.2222 0H3.77778C1.69433 0 0 1.69433 0 3.77778C0 5.86122 1.69433 7.55556 3.77778 7.55556H30.2222C32.3057 7.55556 34 5.86122 34 3.77778C34 1.69433 32.3057 0 30.2222 0Z" fill="#424242"/>
</svg>
