<svg width="42" height="65" viewBox="0 0 42 65" fill="none" xmlns="http://www.w3.org/2000/svg">
<path d="M0 26.199C0 24.6882 0.666275 22.6984 1.99882 20.2296C3.33137 17.7608 4.60635 15.7157 5.82374 14.0944C6.15276 13.6522 6.56404 13.1087 7.05758 12.4639C7.55112 11.819 7.83079 11.4598 7.89659 11.3861L9.82139 13.9286C11.2691 15.7341 12.6016 17.8345 13.819 20.2296C15.0364 22.6247 15.6451 24.6145 15.6451 26.199C15.6451 28.631 14.8966 30.7129 13.3995 32.4447C11.9025 34.1766 10.0682 35.0425 7.89659 35.0425C5.72503 35.0425 3.86604 34.1766 2.31962 32.4447C0.773208 30.7129 0 28.631 0 26.199ZM16.4348 50.6845C16.4348 48.9895 16.8625 47.0089 17.718 44.7428C18.5734 42.4766 19.6263 40.3855 20.8766 38.4694C23.2785 34.8583 25.5817 31.8552 27.7861 29.46C28.0165 29.2758 28.4771 28.7968 29.168 28.023L30.5006 29.46C32.5405 31.6341 34.8602 34.6188 37.4595 38.4141C38.8085 40.4408 39.9025 42.5595 40.7415 44.7704C41.5805 46.9813 42 48.9527 42 50.6845C42 54.7378 40.7662 58.137 38.2985 60.8822C35.8308 63.6274 32.7873 65 29.168 65C25.6146 65 22.604 63.5998 20.1363 60.7993C17.6686 57.9989 16.4348 54.6273 16.4348 50.6845ZM24.4301 10.0043C24.4301 7.46173 26.1904 4.12698 29.7109 0L31.0435 1.65816C32.0306 2.94785 32.9189 4.39413 33.7086 5.99702C34.4982 7.59992 34.8931 8.93566 34.8931 10.0043C34.8931 11.6256 34.3913 12.9797 33.3878 14.0668C32.3843 15.1538 31.1586 15.6973 29.7109 15.6973C28.1974 15.6973 26.9389 15.1538 25.9354 14.0668C24.9318 12.9797 24.4301 11.6256 24.4301 10.0043Z" fill="black"/>
<ellipse cx="24.3068" cy="59.0195" rx="2" ry="3.5" transform="rotate(-25.3727 24.3068 59.0195)" fill="white"/>
<ellipse cx="4" cy="30.5883" rx="1.10307" ry="2.34148" transform="rotate(-25.3727 4 30.5883)" fill="white"/>
<ellipse cx="27.5466" cy="13.0001" rx="0.854004" ry="1.80852" transform="rotate(-25.3727 27.5466 13.0001)" fill="white"/>
</svg>
