<svg width="34" height="34" viewBox="0 0 34 34" fill="none" xmlns="http://www.w3.org/2000/svg">
<path d="M16.875 0C7.57002 0 0 7.57002 0 16.875C0 26.18 7.57002 33.75 16.875 33.75C26.18 33.75 33.75 26.18 33.75 16.875C33.75 7.57002 26.18 0 16.875 0ZM23.9062 25.8952L19.147 21.1359C17.5563 22.2305 15.614 22.6911 13.7012 22.4274C11.7884 22.1637 10.0432 21.1946 8.80804 19.7104C7.57293 18.2262 6.93706 16.334 7.02521 14.4051C7.11337 12.4762 7.91919 10.6499 9.28455 9.28455C10.6499 7.91919 12.4762 7.11337 14.4051 7.02521C16.334 6.93706 18.2262 7.57293 19.7104 8.80804C21.1946 10.0432 22.1637 11.7884 22.4274 13.7012C22.6911 15.614 22.2305 17.5563 21.1359 19.147L25.8952 23.9062L23.9062 25.8952Z" fill="#424242"/>
<path d="M14.7656 19.6875C17.4839 19.6875 19.6875 17.4839 19.6875 14.7656C19.6875 12.0473 17.4839 9.84375 14.7656 9.84375C12.0473 9.84375 9.84375 12.0473 9.84375 14.7656C9.84375 17.4839 12.0473 19.6875 14.7656 19.6875Z" fill="#424242"/>
</svg>
