<svg width="52" height="65" viewBox="0 0 52 65" fill="none" xmlns="http://www.w3.org/2000/svg">
<path d="M50.9524 8.32899L27.0682 0.148353C26.7801 0.049451 26.3935 0 26.0069 0C25.6203 0 25.2337 0.049451 24.9455 0.148353L1.06136 8.32899C0.477965 8.52679 0 9.20498 0 9.82665V43.9056C0 44.5272 0.400647 45.3467 0.88564 45.7352L25.1142 64.7104C25.3602 64.9011 25.6765 65 25.9998 65C26.3232 65 26.6465 64.9011 26.8855 64.7104L51.1141 45.7352C51.5991 45.3538 51.9997 44.5343 51.9997 43.9056V9.82665C52.0138 9.20498 51.5358 8.53386 50.9524 8.32899ZM38.8346 20.3951L23.8912 41.0727C23.7861 41.2172 23.6486 41.3348 23.4898 41.4158C23.3311 41.4969 23.1555 41.5391 22.9774 41.5391C22.7994 41.5391 22.6238 41.4969 22.465 41.4158C22.3062 41.3348 22.1687 41.2172 22.0637 41.0727L13.1792 28.7806C12.9121 28.4062 13.1792 27.8834 13.636 27.8834H17.516C17.8745 27.8834 18.2189 28.06 18.4297 28.3496L22.9774 34.637L33.584 19.9571C33.7949 19.6674 34.1323 19.4908 34.4978 19.4908H38.3777C38.8346 19.4979 39.1017 20.0207 38.8346 20.3951Z" fill="black"/>
</svg>
